<svg width="20" height="20" viewBox="0 0 20 20" fill="none" xmlns="http://www.w3.org/2000/svg">
<path fill-rule="evenodd" clip-rule="evenodd" d="M5.83334 10.4167C5.83334 11.1042 5.27084 11.6667 4.58334 11.6667C3.88334 11.6667 3.33334 11.1042 3.33334 10.4167C3.33334 9.71666 3.88334 9.16666 4.58334 9.16666C5.27084 9.16666 5.83334 9.71666 5.83334 10.4167ZM10.8333 10.4167C10.8333 11.1042 10.2708 11.6667 9.58334 11.6667C8.88334 11.6667 8.33334 11.1042 8.33334 10.4167C8.33334 9.71666 8.88334 9.16666 9.58334 9.16666C10.2708 9.16666 10.8333 9.71666 10.8333 10.4167ZM14.5833 11.6667C15.2708 11.6667 15.8333 11.1042 15.8333 10.4167C15.8333 9.71666 15.2708 9.16666 14.5833 9.16666C13.8833 9.16666 13.3333 9.71666 13.3333 10.4167C13.3333 11.1042 13.8833 11.6667 14.5833 11.6667Z" fill="white"/>
</svg>
